<svg
  width="24"
  height="24"
  viewBox="0 0 24 24"
  xmlns="http://www.w3.org/2000/svg"
>
  <path
    fill="currentColor"
    fill-rule="evenodd"
    clip-rule="evenodd"
    d="M6.00024 3C3.79111 3 2.00024 4.79086 2.00024 7V17C2.00024 19.2091 3.79111 21 6.00024 21H18.0002C20.2094 21 22.0002 19.2091 22.0002 17V7C22.0002 4.79086 20.2094 3 18.0002 3H6.00024ZM6.41627 7.37592C6.07163 7.14616 5.60597 7.23929 5.37621 7.58393C5.14645 7.92858 5.23958 8.39423 5.58422 8.624L9.36542 11.1448C10.9609 12.2085 13.0396 12.2085 14.6351 11.1448L18.4163 8.624C18.7609 8.39423 18.854 7.92858 18.6243 7.58393C18.3945 7.23929 17.9289 7.14616 17.5842 7.37592L13.803 9.89672C12.7114 10.6245 11.2891 10.6245 10.1975 9.89672L6.41627 7.37592Z"
  ></path>
</svg>
