<svg
  width="162"
  height="48"
  viewBox="0 0 162 48"
  fill="none"
  xmlns="http://www.w3.org/2000/svg"
>
  <path
    d="M0 6C0 2.68629 2.68629 0 6 0H155.538C158.852 0 161.538 2.68629 161.538 6V42C161.538 45.3137 158.852 48 155.538 48H5.99999C2.68628 48 0 45.3137 0 42V6Z"
    fill="black"
  ></path>
  <path
    d="M28.7067 26.7941C28.7067 28.0811 29.8838 29.1256 31.3343 29.1256C31.8394 29.1256 32.3306 29.0022 32.7524 28.7637C33.2297 28.4923 33.7719 28.4923 34.2261 28.7103C34.7034 28.9447 35 29.3887 35 29.8699V34.87C35 36.046 33.9202 37 32.5948 37H26.9641C26.422 37 25.9214 36.7368 25.6619 36.3133C25.4117 35.9103 25.4255 35.4457 25.6851 35.0592C25.8287 34.7714 26.3246 34.1833 26.0651 33.1883C25.9585 32.7648 25.7083 32.3864 25.3653 32.0821C25.0224 31.7861 24.5868 31.5641 24.1095 31.4736C22.4133 31.1405 20.8608 32.259 20.8608 33.7393C20.8608 34.5164 21.2686 34.9605 21.315 35.0592C21.5745 35.4457 21.5884 35.9103 21.3381 36.3133C21.0786 36.7368 20.5782 37 20.0359 37H14.4006C13.0753 37 12.0001 36.046 12.0001 34.87V29.8698C12.0001 29.3887 12.2967 28.9446 12.774 28.7102C13.2606 28.48 13.8167 28.5088 14.2523 28.7637C14.6647 29.0021 15.1513 29.1255 15.6657 29.1255C17.1162 29.1255 18.2934 28.0811 18.2934 26.794C18.2934 25.507 17.1162 24.4585 15.6657 24.4585C14.8223 24.4585 14.3542 24.7874 14.2013 24.8532C13.7564 25.0876 13.2188 25.0958 12.76 24.8738C12.2919 24.6394 12 24.1994 12 23.7183V18.7264C12 17.5463 13.0751 16.5882 14.4006 16.5882H20.0359C20.2398 16.5882 20.4252 16.4936 20.5225 16.3291C20.5688 16.2592 20.6568 16.0701 20.5085 15.8685C20.1471 15.3834 19.9339 14.7748 19.9339 14.1498C19.9339 12.394 21.5512 11 23.493 11C23.6598 11 23.8267 11.0123 23.9982 11.0329H24.0028C25.6989 11.2385 27.015 12.5378 27.0614 14.0511C27.0892 14.7049 26.8807 15.334 26.4913 15.8685C26.3431 16.07 26.4311 16.2592 26.4774 16.3291C26.5748 16.4936 26.7601 16.5882 26.964 16.5882H32.5947C33.92 16.5882 34.9999 17.5463 34.9999 18.7264V23.7183C34.9999 24.1994 34.7079 24.6394 34.2352 24.8738C33.7717 25.0999 33.2203 25.0958 32.7476 24.8244C32.3305 24.5859 31.8439 24.4585 31.3341 24.4585C29.8838 24.4585 28.7067 25.5071 28.7067 26.7941Z"
    fill="white"
  ></path>
  <path
    d="M51.531 19.176C50.6583 19.176 49.9543 18.89 49.419 18.318C48.8837 17.7533 48.616 17.0053 48.616 16.074V11.124H49.628V16.118C49.628 16.7633 49.7967 17.273 50.134 17.647C50.4713 18.021 50.937 18.208 51.531 18.208C52.125 18.208 52.5907 18.021 52.928 17.647C53.2653 17.273 53.434 16.7633 53.434 16.118V11.124H54.446V16.074C54.446 17.0273 54.182 17.7827 53.654 18.34C53.126 18.8973 52.4183 19.176 51.531 19.176ZM59.7436 17.504C59.7436 17.9733 59.5383 18.3693 59.1276 18.692C58.717 19.0147 58.2 19.176 57.5766 19.176C57.034 19.176 56.5573 19.0367 56.1466 18.758C55.736 18.472 55.4426 18.098 55.2666 17.636L56.1686 17.251C56.3006 17.5737 56.4913 17.8267 56.7406 18.01C56.9973 18.186 57.276 18.274 57.5766 18.274C57.8993 18.274 58.167 18.2043 58.3796 18.065C58.5996 17.9257 58.7096 17.7607 58.7096 17.57C58.7096 17.2253 58.4456 16.9723 57.9176 16.811L56.9936 16.58C55.945 16.316 55.4206 15.81 55.4206 15.062C55.4206 14.5707 55.6186 14.1783 56.0146 13.885C56.418 13.5843 56.9313 13.434 57.5546 13.434C58.0313 13.434 58.4603 13.5477 58.8416 13.775C59.2303 14.0023 59.5016 14.3067 59.6556 14.688L58.7536 15.062C58.651 14.8347 58.4823 14.6587 58.2476 14.534C58.0203 14.402 57.7636 14.336 57.4776 14.336C57.2136 14.336 56.9753 14.402 56.7626 14.534C56.5573 14.666 56.4546 14.8273 56.4546 15.018C56.4546 15.326 56.7443 15.546 57.3236 15.678L58.1376 15.887C59.2083 16.151 59.7436 16.69 59.7436 17.504ZM61.8248 11.751C61.8248 11.949 61.7551 12.1177 61.6158 12.257C61.4764 12.3963 61.3078 12.466 61.1098 12.466C60.9118 12.466 60.7431 12.3963 60.6038 12.257C60.4644 12.1177 60.3948 11.949 60.3948 11.751C60.3948 11.553 60.4644 11.3843 60.6038 11.245C60.7431 11.1057 60.9118 11.036 61.1098 11.036C61.3078 11.036 61.4764 11.1057 61.6158 11.245C61.7551 11.3843 61.8248 11.553 61.8248 11.751ZM61.6158 13.61V19H60.6038V13.61H61.6158ZM62.8778 13.61H63.8458V14.358H63.8898C64.0438 14.094 64.2784 13.874 64.5938 13.698C64.9164 13.522 65.2501 13.434 65.5948 13.434C66.2548 13.434 66.7608 13.6247 67.1128 14.006C67.4721 14.38 67.6518 14.9153 67.6518 15.612V19H66.6398V15.678C66.6178 14.798 66.1741 14.358 65.3088 14.358C64.9054 14.358 64.5681 14.523 64.2968 14.853C64.0254 15.1757 63.8898 15.5643 63.8898 16.019V19H62.8778V13.61ZM71.151 18.252C71.6496 18.252 72.0566 18.0723 72.372 17.713C72.702 17.3537 72.867 16.8843 72.867 16.305C72.867 15.7403 72.702 15.2747 72.372 14.908C72.0493 14.5413 71.6423 14.358 71.151 14.358C70.667 14.358 70.26 14.5413 69.93 14.908C69.6 15.2747 69.435 15.7403 69.435 16.305C69.435 16.877 69.6 17.3427 69.93 17.702C70.26 18.0687 70.667 18.252 71.151 18.252ZM71.118 21.552C70.8173 21.552 70.535 21.5117 70.271 21.431C70.007 21.3577 69.765 21.2513 69.545 21.112C69.3323 20.9727 69.149 20.8077 68.995 20.617C68.841 20.4263 68.7236 20.2137 68.643 19.979L69.6 19.583C69.71 19.8983 69.9006 20.1513 70.172 20.342C70.4433 20.5327 70.7586 20.628 71.118 20.628C71.668 20.628 72.097 20.463 72.405 20.133C72.713 19.803 72.867 19.3483 72.867 18.769V18.252H72.823C72.6323 18.538 72.372 18.7653 72.042 18.934C71.7193 19.0953 71.3673 19.176 70.986 19.176C70.282 19.176 69.677 18.901 69.171 18.351C68.6723 17.7863 68.423 17.1043 68.423 16.305C68.423 15.5057 68.6723 14.8273 69.171 14.27C69.677 13.7127 70.282 13.434 70.986 13.434C71.3673 13.434 71.7193 13.5183 72.042 13.687C72.372 13.8483 72.6323 14.072 72.823 14.358H72.867V13.61H73.835V18.769C73.835 19.6343 73.5893 20.3127 73.098 20.804C72.5993 21.3027 71.9393 21.552 71.118 21.552ZM79.7958 19.176C79.0038 19.176 78.3512 18.9047 77.8378 18.362C77.3245 17.8193 77.0678 17.1337 77.0678 16.305C77.0678 15.4837 77.3172 14.8017 77.8158 14.259C78.3145 13.709 78.9525 13.434 79.7298 13.434C80.5292 13.434 81.1635 13.6943 81.6328 14.215C82.1095 14.7283 82.3478 15.4507 82.3478 16.382L82.3368 16.492H78.1018C78.1165 17.02 78.2925 17.4453 78.6298 17.768C78.9672 18.0907 79.3705 18.252 79.8398 18.252C80.4852 18.252 80.9912 17.9293 81.3578 17.284L82.2598 17.724C82.0178 18.1787 81.6805 18.5343 81.2478 18.791C80.8225 19.0477 80.3385 19.176 79.7958 19.176ZM78.1788 15.656H81.2698C81.2405 15.282 81.0865 14.974 80.8078 14.732C80.5365 14.4827 80.1698 14.358 79.7078 14.358C79.3265 14.358 78.9965 14.4753 78.7178 14.71C78.4465 14.9447 78.2668 15.26 78.1788 15.656ZM85.6739 16.261L87.5989 19H86.4109L85.0799 17.009L83.7709 19H82.5829L84.4859 16.261L82.6269 13.61H83.7709L85.1019 15.513L86.3669 13.61H87.5549L85.6739 16.261ZM90.3784 19.088C89.9384 19.088 89.5717 18.9523 89.2784 18.681C88.9924 18.4097 88.8457 18.032 88.8384 17.548V14.534H87.8924V13.61H88.8384V11.96H89.8504V13.61H91.1704V14.534H89.8504V17.218C89.8504 17.5773 89.92 17.823 90.0594 17.955C90.1987 18.0797 90.3564 18.142 90.5324 18.142C90.613 18.142 90.69 18.1347 90.7634 18.12C90.844 18.098 90.9174 18.0723 90.9834 18.043L91.3024 18.945C91.0384 19.0403 90.7304 19.088 90.3784 19.088ZM94.4443 19.176C93.6523 19.176 92.9997 18.9047 92.4863 18.362C91.973 17.8193 91.7163 17.1337 91.7163 16.305C91.7163 15.4837 91.9657 14.8017 92.4643 14.259C92.963 13.709 93.601 13.434 94.3783 13.434C95.1777 13.434 95.812 13.6943 96.2813 14.215C96.758 14.7283 96.9963 15.4507 96.9963 16.382L96.9853 16.492H92.7503C92.765 17.02 92.941 17.4453 93.2783 17.768C93.6157 18.0907 94.019 18.252 94.4883 18.252C95.1337 18.252 95.6397 17.9293 96.0063 17.284L96.9083 17.724C96.6663 18.1787 96.329 18.5343 95.8963 18.791C95.471 19.0477 94.987 19.176 94.4443 19.176ZM92.8273 15.656H95.9183C95.889 15.282 95.735 14.974 95.4563 14.732C95.185 14.4827 94.8183 14.358 94.3563 14.358C93.975 14.358 93.645 14.4753 93.3663 14.71C93.095 14.9447 92.9153 15.26 92.8273 15.656ZM97.8668 13.61H98.8348V14.358H98.8788C99.0328 14.094 99.2674 13.874 99.5828 13.698C99.9054 13.522 100.239 13.434 100.584 13.434C101.244 13.434 101.75 13.6247 102.102 14.006C102.461 14.38 102.641 14.9153 102.641 15.612V19H101.629V15.678C101.607 14.798 101.163 14.358 100.298 14.358C99.8944 14.358 99.5571 14.523 99.2858 14.853C99.0144 15.1757 98.8788 15.5643 98.8788 16.019V19H97.8668V13.61ZM107.845 17.504C107.845 17.9733 107.64 18.3693 107.229 18.692C106.818 19.0147 106.301 19.176 105.678 19.176C105.135 19.176 104.659 19.0367 104.248 18.758C103.837 18.472 103.544 18.098 103.368 17.636L104.27 17.251C104.402 17.5737 104.593 17.8267 104.842 18.01C105.099 18.186 105.377 18.274 105.678 18.274C106.001 18.274 106.268 18.2043 106.481 18.065C106.701 17.9257 106.811 17.7607 106.811 17.57C106.811 17.2253 106.547 16.9723 106.019 16.811L105.095 16.58C104.046 16.316 103.522 15.81 103.522 15.062C103.522 14.5707 103.72 14.1783 104.116 13.885C104.519 13.5843 105.033 13.434 105.656 13.434C106.133 13.434 106.562 13.5477 106.943 13.775C107.332 14.0023 107.603 14.3067 107.757 14.688L106.855 15.062C106.752 14.8347 106.584 14.6587 106.349 14.534C106.122 14.402 105.865 14.336 105.579 14.336C105.315 14.336 105.077 14.402 104.864 14.534C104.659 14.666 104.556 14.8273 104.556 15.018C104.556 15.326 104.846 15.546 105.425 15.678L106.239 15.887C107.31 16.151 107.845 16.69 107.845 17.504ZM109.926 11.751C109.926 11.949 109.856 12.1177 109.717 12.257C109.578 12.3963 109.409 12.466 109.211 12.466C109.013 12.466 108.844 12.3963 108.705 12.257C108.566 12.1177 108.496 11.949 108.496 11.751C108.496 11.553 108.566 11.3843 108.705 11.245C108.844 11.1057 109.013 11.036 109.211 11.036C109.409 11.036 109.578 11.1057 109.717 11.245C109.856 11.3843 109.926 11.553 109.926 11.751ZM109.717 13.61V19H108.705V13.61H109.717ZM110.617 16.305C110.617 15.4763 110.878 14.7907 111.398 14.248C111.926 13.7053 112.59 13.434 113.389 13.434C114.189 13.434 114.849 13.7053 115.369 14.248C115.897 14.7907 116.161 15.4763 116.161 16.305C116.161 17.141 115.897 17.8267 115.369 18.362C114.849 18.9047 114.189 19.176 113.389 19.176C112.59 19.176 111.926 18.9047 111.398 18.362C110.878 17.8193 110.617 17.1337 110.617 16.305ZM111.629 16.305C111.629 16.8843 111.798 17.3537 112.135 17.713C112.473 18.0723 112.891 18.252 113.389 18.252C113.888 18.252 114.306 18.0723 114.643 17.713C114.981 17.3537 115.149 16.8843 115.149 16.305C115.149 15.733 114.981 15.2673 114.643 14.908C114.299 14.5413 113.881 14.358 113.389 14.358C112.898 14.358 112.48 14.5413 112.135 14.908C111.798 15.2673 111.629 15.733 111.629 16.305ZM116.918 13.61H117.886V14.358H117.93C118.084 14.094 118.319 13.874 118.634 13.698C118.957 13.522 119.291 13.434 119.635 13.434C120.295 13.434 120.801 13.6247 121.153 14.006C121.513 14.38 121.692 14.9153 121.692 15.612V19H120.68V15.678C120.658 14.798 120.215 14.358 119.349 14.358C118.946 14.358 118.609 14.523 118.337 14.853C118.066 15.1757 117.93 15.5643 117.93 16.019V19H116.918V13.61Z"
    fill="white"
  ></path>
  <path
    d="M62.658 37.585C61.916 38.481 61.041 39.167 60.033 39.643C59.025 40.105 57.898 40.336 56.652 40.336C55.532 40.336 54.489 40.133 53.523 39.727C52.571 39.321 51.745 38.768 51.045 38.068C50.345 37.368 49.792 36.542 49.386 35.59C48.98 34.624 48.777 33.588 48.777 32.482C48.777 31.376 48.98 30.347 49.386 29.395C49.792 28.429 50.345 27.596 51.045 26.896C51.745 26.196 52.571 25.643 53.523 25.237C54.489 24.831 55.532 24.628 56.652 24.628C57.856 24.628 58.913 24.838 59.823 25.258C60.747 25.678 61.566 26.287 62.28 27.085L60.285 29.017C59.837 28.499 59.319 28.086 58.731 27.778C58.157 27.47 57.471 27.316 56.673 27.316C55.973 27.316 55.315 27.442 54.699 27.694C54.083 27.932 53.544 28.275 53.082 28.723C52.634 29.171 52.277 29.717 52.011 30.361C51.745 30.991 51.612 31.698 51.612 32.482C51.612 33.266 51.745 33.98 52.011 34.624C52.277 35.254 52.634 35.793 53.082 36.241C53.544 36.689 54.083 37.039 54.699 37.291C55.315 37.529 55.973 37.648 56.673 37.648C57.513 37.648 58.255 37.48 58.899 37.144C59.557 36.794 60.138 36.304 60.642 35.674L62.658 37.585ZM64.2878 24.964H67.0388V29.185L66.8708 31.054H67.0388C67.3328 30.564 67.7528 30.165 68.2988 29.857C68.8588 29.535 69.4818 29.374 70.1678 29.374C71.4978 29.374 72.4778 29.766 73.1078 30.55C73.7518 31.334 74.0738 32.405 74.0738 33.763V40H71.3228V34.099C71.3228 33.385 71.1548 32.846 70.8188 32.482C70.4828 32.104 70.0138 31.915 69.4118 31.915C69.0338 31.915 68.6978 31.999 68.4038 32.167C68.1098 32.321 67.8578 32.538 67.6478 32.818C67.4518 33.098 67.2978 33.427 67.1858 33.805C67.0878 34.169 67.0388 34.561 67.0388 34.981V40H64.2878V24.964ZM76.2414 29.71H78.8244V31.138H78.9924C79.1184 30.886 79.2864 30.655 79.4964 30.445C79.7064 30.235 79.9374 30.053 80.1894 29.899C80.4554 29.745 80.7354 29.626 81.0294 29.542C81.3374 29.458 81.6384 29.416 81.9324 29.416C82.2964 29.416 82.6044 29.451 82.8564 29.521C83.1224 29.591 83.3464 29.682 83.5284 29.794L82.7934 32.293C82.6254 32.209 82.4364 32.146 82.2264 32.104C82.0304 32.048 81.7854 32.02 81.4914 32.02C81.1134 32.02 80.7704 32.097 80.4624 32.251C80.1544 32.391 79.8884 32.594 79.6644 32.86C79.4544 33.126 79.2864 33.441 79.1604 33.805C79.0484 34.155 78.9924 34.54 78.9924 34.96V40H76.2414V29.71ZM88.9244 29.374C89.7224 29.374 90.4504 29.514 91.1084 29.794C91.7804 30.06 92.3544 30.438 92.8304 30.928C93.3204 31.404 93.6984 31.978 93.9644 32.65C94.2444 33.322 94.3844 34.057 94.3844 34.855C94.3844 35.653 94.2444 36.388 93.9644 37.06C93.6984 37.732 93.3204 38.313 92.8304 38.803C92.3544 39.279 91.7804 39.657 91.1084 39.937C90.4504 40.203 89.7224 40.336 88.9244 40.336C88.1264 40.336 87.3914 40.203 86.7194 39.937C86.0614 39.657 85.4874 39.279 84.9974 38.803C84.5214 38.313 84.1434 37.732 83.8634 37.06C83.5974 36.388 83.4644 35.653 83.4644 34.855C83.4644 34.057 83.5974 33.322 83.8634 32.65C84.1434 31.978 84.5214 31.404 84.9974 30.928C85.4874 30.438 86.0614 30.06 86.7194 29.794C87.3914 29.514 88.1264 29.374 88.9244 29.374ZM88.9244 37.795C89.2744 37.795 89.6104 37.732 89.9324 37.606C90.2684 37.466 90.5624 37.27 90.8144 37.018C91.0664 36.766 91.2624 36.458 91.4024 36.094C91.5564 35.73 91.6334 35.317 91.6334 34.855C91.6334 34.393 91.5564 33.98 91.4024 33.616C91.2624 33.252 91.0664 32.944 90.8144 32.692C90.5624 32.44 90.2684 32.251 89.9324 32.125C89.6104 31.985 89.2744 31.915 88.9244 31.915C88.5604 31.915 88.2174 31.985 87.8954 32.125C87.5734 32.251 87.2864 32.44 87.0344 32.692C86.7824 32.944 86.5794 33.252 86.4254 33.616C86.2854 33.98 86.2154 34.393 86.2154 34.855C86.2154 35.317 86.2854 35.73 86.4254 36.094C86.5794 36.458 86.7824 36.766 87.0344 37.018C87.2864 37.27 87.5734 37.466 87.8954 37.606C88.2174 37.732 88.5604 37.795 88.9244 37.795ZM95.8419 29.71H98.4249V31.054H98.5929C98.9149 30.55 99.3489 30.144 99.8949 29.836C100.455 29.528 101.071 29.374 101.743 29.374C102.527 29.374 103.185 29.556 103.717 29.92C104.249 30.284 104.627 30.732 104.851 31.264C105.173 30.746 105.628 30.305 106.216 29.941C106.804 29.563 107.518 29.374 108.358 29.374C108.988 29.374 109.534 29.479 109.996 29.689C110.458 29.885 110.836 30.165 111.13 30.529C111.438 30.893 111.669 31.334 111.823 31.852C111.977 32.356 112.054 32.909 112.054 33.511V40H109.303V34.015C109.303 32.615 108.729 31.915 107.581 31.915C107.217 31.915 106.895 31.999 106.615 32.167C106.335 32.321 106.097 32.538 105.901 32.818C105.719 33.084 105.572 33.406 105.46 33.784C105.362 34.162 105.313 34.568 105.313 35.002V40H102.562V34.015C102.562 32.615 101.96 31.915 100.756 31.915C100.406 31.915 100.098 31.999 99.8319 32.167C99.5659 32.321 99.3419 32.538 99.1599 32.818C98.9779 33.084 98.8379 33.406 98.7399 33.784C98.6419 34.162 98.5929 34.568 98.5929 35.002V40H95.8419V29.71ZM123.958 37.522C123.482 38.362 122.838 39.041 122.026 39.559C121.228 40.077 120.248 40.336 119.086 40.336C118.302 40.336 117.574 40.203 116.902 39.937C116.244 39.657 115.67 39.272 115.18 38.782C114.69 38.292 114.305 37.718 114.025 37.06C113.759 36.388 113.626 35.653 113.626 34.855C113.626 34.113 113.759 33.413 114.025 32.755C114.291 32.083 114.662 31.502 115.138 31.012C115.614 30.508 116.174 30.109 116.818 29.815C117.476 29.521 118.197 29.374 118.981 29.374C119.807 29.374 120.542 29.514 121.186 29.794C121.83 30.06 122.369 30.438 122.803 30.928C123.237 31.404 123.566 31.971 123.79 32.629C124.014 33.287 124.126 34.001 124.126 34.771C124.126 34.869 124.126 34.953 124.126 35.023C124.112 35.107 124.105 35.184 124.105 35.254C124.091 35.324 124.084 35.401 124.084 35.485H116.335C116.391 35.905 116.503 36.269 116.671 36.577C116.853 36.871 117.07 37.123 117.322 37.333C117.588 37.529 117.875 37.676 118.183 37.774C118.491 37.858 118.806 37.9 119.128 37.9C119.758 37.9 120.276 37.76 120.682 37.48C121.102 37.186 121.431 36.822 121.669 36.388L123.958 37.522ZM121.459 33.532C121.445 33.35 121.382 33.147 121.27 32.923C121.172 32.699 121.018 32.489 120.808 32.293C120.612 32.097 120.36 31.936 120.052 31.81C119.758 31.684 119.401 31.621 118.981 31.621C118.393 31.621 117.875 31.789 117.427 32.125C116.979 32.461 116.664 32.93 116.482 33.532H121.459Z"
    fill="white"
  ></path>
</svg>
