<svg
  width="24"
  height="24"
  viewBox="0 0 24 24"
  xmlns="http://www.w3.org/2000/svg"
>
  <path
    fill="currentColor"
    d="M6.37524 22C5.85962 22 5.41837 21.8136 5.05149 21.441C4.68462 21.0683 4.50087 20.6197 4.50024 20.0952V10.5714C4.50024 10.0476 4.68399 9.59937 5.05149 9.22667C5.41899 8.85397 5.86024 8.6673 6.37524 8.66667H7.31274V6.7619C7.31274 5.44444 7.76993 4.32159 8.68431 3.39333C9.59868 2.46508 10.704 2.00064 12.0002 2C13.2965 1.99937 14.4021 2.46381 15.3171 3.39333C16.2321 4.32286 16.689 5.44571 16.6877 6.7619V8.66667H17.6252C18.1409 8.66667 18.5824 8.85333 18.9499 9.22667C19.3174 9.6 19.5009 10.0483 19.5002 10.5714V20.0952C19.5002 20.619 19.3168 21.0676 18.9499 21.441C18.5831 21.8143 18.1415 22.0006 17.6252 22H6.37524ZM12.0002 17.2381C12.5159 17.2381 12.9574 17.0517 13.3249 16.679C13.6924 16.3063 13.8759 15.8578 13.8752 15.3333C13.8746 14.8089 13.6912 14.3606 13.3249 13.9886C12.9587 13.6165 12.5171 13.4298 12.0002 13.4286C11.4834 13.4273 11.0421 13.614 10.6765 13.9886C10.3109 14.3632 10.1271 14.8114 10.1252 15.3333C10.1234 15.8552 10.3071 16.3038 10.6765 16.679C11.0459 17.0543 11.4871 17.2406 12.0002 17.2381ZM9.18774 8.66667H14.8127V6.7619C14.8127 5.96825 14.5393 5.29365 13.9924 4.7381C13.4456 4.18254 12.7815 3.90476 12.0002 3.90476C11.219 3.90476 10.5549 4.18254 10.0081 4.7381C9.46118 5.29365 9.18774 5.96825 9.18774 6.7619V8.66667Z"
  ></path>
</svg>
