<svg
  width="24"
  height="24"
  viewBox="0 0 24 24"
  fill="currentColor"
  xmlns="http://www.w3.org/2000/svg"
>
  <path
    fill="currentColor"
    fill-rule="evenodd"
    clip-rule="evenodd"
    d="M12.3503 2.10083C11.252 2.10083 10.4647 2.89675 10.4647 3.7479C10.4647 4.06064 10.5697 4.37059 10.7475 4.61576L10.7501 4.61933C11.1079 5.11914 10.9049 5.60683 10.7951 5.79C10.5721 6.16919 10.1727 6.35361 9.7902 6.35361H5.61709C4.98609 6.35361 4.58939 6.80793 4.58939 7.23088V11.0299C4.58939 11.0882 4.62362 11.1778 4.74086 11.2399C4.86331 11.299 5.00145 11.2941 5.11242 11.234L5.13881 11.2197L5.16604 11.2077C5.16367 11.2087 5.1447 11.2168 5.2506 11.1613C5.32484 11.1224 5.42573 11.0727 5.55062 11.0246C5.80332 10.9274 6.13741 10.8432 6.55398 10.8432C7.97748 10.8432 9.24985 11.9149 9.24985 13.3706C9.24985 14.8279 7.97571 15.8949 6.55398 15.8949C6.05027 15.8949 5.55547 15.7706 5.12419 15.5143L5.12073 15.5123C5.01971 15.4515 4.87917 15.438 4.74554 15.501C4.62277 15.5649 4.58943 15.657 4.58943 15.7114V19.5167C4.58943 19.9338 4.98322 20.3877 5.61714 20.3877H9.79025C9.95135 20.3877 10.0653 20.3067 10.1104 20.231L10.1127 20.2271C10.1348 20.1906 10.1381 20.1648 10.1378 20.1489C10.1374 20.1325 10.1327 20.1063 10.1096 20.0709L10.0788 20.0237L10.0742 20.0136C10.0645 19.9991 10.0511 19.9787 10.0398 19.9611C9.99622 19.8935 9.93731 19.7965 9.87908 19.6741C9.76149 19.4268 9.65112 19.0845 9.65112 18.6561C9.65112 16.9659 11.3263 15.8694 12.9527 16.1962C13.4452 16.2926 13.8874 16.526 14.2346 16.834L14.2422 16.8408C14.5887 17.1567 14.863 17.5691 14.9828 18.0556C15.1182 18.5916 15.0578 19.0418 14.9349 19.3962C14.8755 19.5675 14.8045 19.7082 14.7471 19.8128C14.7245 19.8541 14.7018 19.8936 14.6851 19.9228C14.6814 19.9291 14.6781 19.9349 14.6751 19.9402C14.6657 19.9565 14.6593 19.968 14.6542 19.9771C14.6497 19.9853 14.6482 19.9885 14.6482 19.9885L14.6275 20.0311L14.6015 20.0709C14.5784 20.1062 14.5737 20.1325 14.5733 20.1489C14.573 20.1648 14.5763 20.1906 14.5984 20.2272L14.6007 20.231C14.6458 20.3067 14.7597 20.3877 14.9208 20.3877H19.0905C19.7264 20.3877 20.1216 19.932 20.1216 19.5167V15.7114C20.1216 15.6568 20.088 15.564 19.9637 15.5C19.8457 15.443 19.7126 15.4429 19.5856 15.5172L19.584 15.5181C19.1504 15.77 18.6554 15.895 18.1571 15.895C16.7353 15.895 15.4612 14.8279 15.4612 13.3706C15.4612 11.915 16.7335 10.8432 18.1569 10.8432C18.663 10.8432 19.1553 10.9733 19.5836 11.2251L19.5848 11.2257C19.7076 11.2982 19.8446 11.3003 19.9669 11.2399C20.0881 11.1773 20.1216 11.0875 20.1216 11.0299V7.23088C20.1216 6.8097 19.7234 6.35361 19.0904 6.35361H14.9207C14.5382 6.35361 14.1391 6.16916 13.9161 5.79036C13.8072 5.6088 13.6028 5.12129 13.9596 4.62119C14.1593 4.33891 14.2566 4.02195 14.2435 3.70379L14.2431 3.69514C14.2216 2.97478 13.5954 2.25773 12.6742 2.12536L12.6326 2.12022C12.528 2.10731 12.436 2.10083 12.3503 2.10083ZM8.96467 3.7479C8.96467 1.9266 10.5728 0.60083 12.3503 0.60083C12.4946 0.60083 12.6339 0.610614 12.7686 0.625864H12.7744L12.8205 0.631617C14.3887 0.826975 15.6932 2.07544 15.7424 3.64616L15.7425 3.65045L14.9928 3.67279L15.7422 3.6418L15.7424 3.64616C15.7592 4.06881 15.6827 4.47721 15.531 4.85361H19.0904C20.4204 4.85361 21.6216 5.85577 21.6216 7.23088V11.0299C21.6216 11.7041 21.223 12.2833 20.6458 12.5775L20.6415 12.5796C20.0781 12.8622 19.3994 12.8577 18.8231 12.5179C18.6338 12.4069 18.4057 12.3432 18.1569 12.3432C17.4323 12.3432 16.9612 12.8674 16.9612 13.3706C16.9612 13.8723 17.4305 14.395 18.1571 14.395C18.4069 14.395 18.6393 14.3321 18.8304 14.2211L18.8288 14.222C19.4076 13.8838 20.0763 13.8831 20.6303 14.1563L20.6364 14.1593C21.2166 14.4521 21.6216 15.0341 21.6216 15.7114V19.5167C21.6216 20.8912 20.4177 21.8877 19.0905 21.8877H14.9208C14.2795 21.8877 13.6528 21.5687 13.3133 21.0009C12.9863 20.4581 12.9978 19.8138 13.3212 19.2892C13.3404 19.2525 13.3595 19.2191 13.3732 19.1951C13.3782 19.1864 13.3828 19.1783 13.3873 19.1705C13.4035 19.1423 13.4171 19.1186 13.4319 19.0916C13.4673 19.0271 13.496 18.9675 13.5177 18.9049C13.5567 18.7922 13.5839 18.6411 13.5281 18.4213L13.5265 18.4152C13.4884 18.2595 13.3938 18.0984 13.2353 17.9527C13.0757 17.8123 12.8752 17.7093 12.6634 17.668L12.6585 17.667C11.7735 17.4884 11.1511 18.0941 11.1511 18.6561C11.1511 18.8192 11.1918 18.9416 11.2337 19.03C11.2553 19.0753 11.2783 19.1139 11.3011 19.1492C11.3099 19.163 11.3154 19.1713 11.3224 19.1817C11.3271 19.1889 11.3325 19.197 11.3401 19.2086L11.3412 19.2102C11.346 19.2175 11.3635 19.2437 11.3835 19.2788C11.7131 19.8053 11.727 20.4546 11.3976 21.0011C11.0581 21.5688 10.4315 21.8877 9.79025 21.8877H5.61714C4.28809 21.8877 3.08943 20.8895 3.08943 19.5167V15.7114C3.08943 15.0341 3.49448 14.4521 4.07464 14.1593L4.0845 14.1543C4.6693 13.8699 5.34915 13.9003 5.89168 14.2256C6.07105 14.3318 6.29647 14.3949 6.55398 14.3949C7.28056 14.3949 7.74985 13.8722 7.74985 13.3706C7.74985 12.8674 7.27879 12.3432 6.55398 12.3432C6.34597 12.3432 6.19445 12.3841 6.08937 12.4245C6.03537 12.4453 5.98934 12.4676 5.94721 12.4897C5.93023 12.4986 5.91662 12.506 5.90025 12.5149C5.89388 12.5184 5.8871 12.522 5.87953 12.5261L5.87745 12.5272C5.86326 12.5349 5.83639 12.5494 5.80543 12.5644C5.26319 12.8492 4.61691 12.8536 4.06822 12.5807L4.05902 12.5761C3.48663 12.2816 3.08939 11.703 3.08939 11.0299V7.23088C3.08939 5.85763 4.28503 4.85361 5.61709 4.85361H9.17928C9.04083 4.50767 8.96467 4.13179 8.96467 3.7479Z"
  ></path>
</svg>
