<svg
  xmlns="http://www.w3.org/2000/svg"
  width="100%"
  viewBox="0 0 162 48"
  fill="none"
>
  <path
    d="M160.466 42.3333C160.466 42.9374 160.347 43.5356 160.116 44.0937C159.886 44.6518 159.548 45.1588 159.121 45.5858C158.695 46.0127 158.189 46.3513 157.632 46.582C157.075 46.8128 156.478 46.9312 155.876 46.9306H5.66062C4.44312 46.9318 3.27496 46.4482 2.41304 45.5861C1.55113 44.724 1.06604 43.554 1.06445 42.3333V5.67163C1.06604 4.45042 1.55094 3.27976 2.41268 2.41668C3.27442 1.55361 4.44257 1.06868 5.66062 1.06836H155.875C156.478 1.06836 157.074 1.18744 157.631 1.41879C158.188 1.65014 158.695 1.98923 159.121 2.4167C159.547 2.84417 159.885 3.35164 160.116 3.91012C160.346 4.46861 160.465 5.06717 160.465 5.67163L160.466 42.3333Z"
    fill="white"
  ></path>
  <path
    d="M160.466 42.3333C160.466 42.9374 160.347 43.5356 160.116 44.0937C159.886 44.6518 159.548 45.1588 159.121 45.5858C158.695 46.0127 158.189 46.3513 157.632 46.582C157.075 46.8128 156.478 46.9312 155.876 46.9306H5.66062C4.44312 46.9318 3.27496 46.4482 2.41304 45.5861C1.55113 44.724 1.06604 43.554 1.06445 42.3333V5.67163C1.06604 4.45042 1.55094 3.27976 2.41268 2.41668C3.27442 1.55361 4.44257 1.06868 5.66062 1.06836H155.875C156.478 1.06836 157.074 1.18744 157.631 1.41879C158.188 1.65014 158.695 1.98923 159.121 2.4167C159.547 2.84417 159.885 3.35164 160.116 3.91012C160.346 4.46861 160.465 5.06717 160.465 5.67163L160.466 42.3333Z"
    fill="black"
  ></path>
  <path
    d="M36.0697 23.7478C36.035 19.8791 39.2292 17.997 39.3753 17.9094C37.5663 15.265 34.7624 14.9037 33.777 14.8749C31.4221 14.6265 29.1378 16.2877 27.9382 16.2877C26.7146 16.2877 24.8673 14.8989 22.8763 14.9397C20.3142 14.9794 17.9173 16.4666 16.6028 18.776C13.8899 23.4849 15.9132 30.4048 18.5124 34.2111C19.8126 36.0764 21.3318 38.1565 23.3204 38.0833C25.2659 38.0041 25.9927 36.841 28.3404 36.841C30.6666 36.841 31.3491 38.0833 33.3772 38.0365C35.4651 38.0041 36.7797 36.164 38.0344 34.2831C39.5369 32.1477 40.1403 30.0423 40.1643 29.9343C40.1164 29.9175 36.1104 28.3834 36.0697 23.7478ZM32.2386 12.371C33.285 11.0591 34.0009 9.27419 33.8022 7.46289C32.2877 7.53011 30.3937 8.51318 29.303 9.79633C28.338 10.927 27.476 12.7804 27.6987 14.5232C29.4 14.6505 31.1467 13.6626 32.2386 12.371Z"
    fill="white"
  ></path>
  <path
    d="M155.876 0H75.416L106.931 48H155.876C157.376 47.9987 158.814 47.4011 159.876 46.3382C160.937 45.2752 161.535 43.8337 161.538 42.3296V5.67276C161.535 4.16841 160.938 2.72645 159.876 1.66305C158.815 0.599646 157.376 0.00158674 155.876 0Z"
    fill="url(#paint0_linear_17937_48563)"
  ></path>
  <path
    d="M64.2478 37.8159H61.5288L60.0395 33.1238H54.8627L53.4439 37.8159H50.7969L55.927 21.8419H59.0949L64.2478 37.8159ZM59.5905 31.1553L58.2436 26.9841C58.1012 26.558 57.833 25.5546 57.4403 23.9749H57.3924C57.2344 24.6543 56.9818 25.6578 56.6358 26.9841L55.3116 31.1553H59.5905ZM77.4149 31.9151C77.4149 33.874 76.8845 35.4225 75.8226 36.5592C74.872 37.5711 73.6903 38.0764 72.2812 38.0764C70.7595 38.0764 69.6652 37.5327 69.0007 36.4428V42.4864H66.4483V30.0834C66.4483 28.8531 66.4159 27.5915 66.3537 26.2976H68.5985L68.741 28.1233H68.7888C69.6401 26.7477 70.9319 26.0599 72.6655 26.0599C74.0207 26.0599 75.1521 26.5964 76.0572 27.6707C76.9611 28.7474 77.4149 30.1614 77.4149 31.9151ZM74.8145 32.0087C74.8145 30.8876 74.5631 29.9634 74.0578 29.2348C73.5059 28.4774 72.7648 28.0981 71.8358 28.0981C71.206 28.0981 70.6338 28.3093 70.1226 28.7258C69.6101 29.1459 69.2749 29.6945 69.1181 30.3739C69.0481 30.628 69.0083 30.8894 68.9996 31.1529V33.0746C68.9996 33.9113 69.2558 34.6182 69.7682 35.1968C70.2806 35.773 70.9462 36.0622 71.7652 36.0622C72.7265 36.0622 73.4748 35.6889 74.01 34.9483C74.5463 34.2053 74.8145 33.2259 74.8145 32.0087ZM90.6287 31.9151C90.6287 33.874 90.0983 35.4225 89.0364 36.5592C88.0846 37.5711 86.9041 38.0764 85.4938 38.0764C83.9721 38.0764 82.8778 37.5327 82.2134 36.4428V42.4864H79.6609V30.0834C79.6609 28.8531 79.6286 27.5915 79.5663 26.2976H81.8111L81.9536 28.1233H82.0015C82.8515 26.7477 84.1433 26.0599 85.8781 26.0599C87.2322 26.0599 88.3635 26.5964 89.271 27.6707C90.1738 28.7474 90.6287 30.1614 90.6287 31.9151ZM88.0271 32.0087C88.0271 30.8876 87.7745 29.9634 87.2693 29.2348C86.7174 28.4774 85.9787 28.0981 85.0496 28.0981C84.4199 28.0981 83.8476 28.3093 83.334 28.7258C82.8216 29.1459 82.4875 29.6945 82.3307 30.3739C82.2529 30.6908 82.211 30.9488 82.211 31.1529V33.0746C82.211 33.9113 82.4684 34.6182 82.9784 35.1968C83.4908 35.7718 84.1565 36.0622 84.9778 36.0622C85.9404 36.0622 86.6886 35.6889 87.2226 34.9483C87.7589 34.2053 88.0271 33.2259 88.0271 32.0087ZM105.403 33.3351C105.403 34.6951 104.928 35.8006 103.986 36.654C102.949 37.5855 101.502 38.0524 99.6462 38.0524C97.9318 38.0524 96.5574 37.7211 95.5206 37.0573L96.1108 34.9243C97.2302 35.5893 98.4598 35.9206 99.7983 35.9206C100.761 35.9206 101.509 35.7021 102.043 35.2688C102.578 34.8343 102.849 34.2533 102.849 33.5283C102.849 32.879 102.625 32.3352 102.186 31.8923C101.744 31.4506 101.013 31.0389 99.9874 30.6608C97.1979 29.6177 95.8019 28.0921 95.8019 26.0851C95.8019 24.7743 96.2952 23.7012 97.2793 22.8622C98.2634 22.0244 99.5684 21.6055 101.192 21.6055C102.642 21.6055 103.85 21.8587 104.809 22.3641L104.168 24.4503C103.265 23.9605 102.247 23.7156 101.107 23.7156C100.207 23.7156 99.5002 23.9377 98.9949 24.3794C98.5699 24.7743 98.3544 25.2557 98.3544 25.827C98.3544 26.4572 98.5999 26.9805 99.0883 27.3911C99.5121 27.7692 100.286 28.1809 101.404 28.6226C102.776 29.1772 103.784 29.8229 104.429 30.5647C105.079 31.3065 105.403 32.232 105.403 33.3351ZM113.863 28.2181H111.05V33.8104C111.05 35.2328 111.546 35.9422 112.539 35.9422C112.995 35.9422 113.374 35.9038 113.673 35.8234L113.744 37.7667C113.241 37.9552 112.579 38.05 111.759 38.05C110.751 38.05 109.963 37.7415 109.394 37.1245C108.828 36.5076 108.543 35.4741 108.543 34.0193V28.2133H106.867V26.2928H108.543V24.1838L111.05 23.4252V26.2928H113.863V28.2181ZM126.532 31.9619C126.532 33.7324 126.027 35.186 125.019 36.3227C123.964 37.493 122.561 38.0764 120.812 38.0764C119.124 38.0764 117.782 37.5158 116.781 36.3959C115.78 35.2736 115.28 33.8596 115.28 32.154C115.28 30.3691 115.797 28.9071 116.828 27.7704C117.861 26.6325 119.252 26.0635 121.001 26.0635C122.687 26.0635 124.041 26.6252 125.066 27.7464C126.045 28.8339 126.532 30.2382 126.532 31.9619ZM123.887 32.0207C123.887 30.9656 123.659 30.0606 123.203 29.3032C122.668 28.3885 121.902 27.9312 120.909 27.9312C119.887 27.9312 119.102 28.3885 118.568 29.3032C118.111 30.0606 117.884 30.9812 117.884 32.0687C117.884 33.125 118.111 34.0325 118.568 34.7875C119.12 35.7021 119.89 36.1595 120.887 36.1595C121.863 36.1595 122.628 35.6925 123.181 34.7647C123.651 33.9893 123.887 33.0782 123.887 32.0207ZM134.833 28.5482C134.567 28.5001 134.298 28.4764 134.028 28.4774C133.13 28.4774 132.436 28.8159 131.947 29.4976C131.524 30.0978 131.311 30.8564 131.311 31.7723V37.8159H128.758V29.925C128.76 28.7158 128.736 27.5068 128.684 26.2988H130.907L131 28.5026H131.071C131.342 27.7452 131.766 27.1342 132.347 26.6769C132.88 26.2772 133.527 26.0608 134.192 26.0599C134.428 26.0599 134.641 26.0767 134.83 26.1067L134.833 28.5482ZM146.248 31.5118C146.255 31.9008 146.224 32.2896 146.155 32.6725H138.498C138.526 33.8104 138.897 34.6819 139.609 35.282C140.254 35.8174 141.088 36.0863 142.113 36.0863C143.247 36.0863 144.281 35.9062 145.212 35.5425L145.611 37.3178C144.524 37.7931 143.241 38.0296 141.76 38.0296C139.979 38.0296 138.58 37.5038 137.562 36.4548C136.547 35.4045 136.038 33.9929 136.038 32.2248C136.038 30.4891 136.511 29.0427 137.458 27.8892C138.45 26.6577 139.789 26.0419 141.475 26.0419C143.131 26.0419 144.384 26.6577 145.236 27.8892C145.91 28.8651 146.248 30.075 146.248 31.5118ZM143.814 30.848C143.832 30.0882 143.665 29.434 143.319 28.8807C142.877 28.1677 142.197 27.8124 141.286 27.8124C140.451 27.8124 139.771 28.1593 139.254 28.8555C138.829 29.4088 138.577 30.0738 138.499 30.8456L143.814 30.848Z"
    fill="white"
  ></path>
  <path
    d="M54.1283 16.1931C53.4184 16.1931 52.8042 16.1583 52.293 16.0995V8.37658C53.008 8.26584 53.7305 8.21126 54.454 8.21333C57.3812 8.21333 58.7293 9.65733 58.7293 12.0112C58.7293 14.7263 57.137 16.1931 54.1283 16.1931ZM54.5569 9.2036C54.1618 9.2036 53.8254 9.22761 53.5465 9.28523V15.156C53.6973 15.18 53.987 15.1909 54.3941 15.1909C56.3121 15.1909 57.4039 14.0961 57.4039 12.046C57.4039 10.2179 56.4162 9.2036 54.5569 9.2036ZM62.9304 16.2519C61.2806 16.2519 60.2114 15.0168 60.2114 13.3399C60.2114 11.5923 61.3033 10.3463 63.0237 10.3463C64.6496 10.3463 65.7426 11.5226 65.7426 13.2475C65.7426 15.0168 64.6161 16.2519 62.9304 16.2519ZM62.9782 11.2658C62.0719 11.2658 61.4913 12.1156 61.4913 13.3039C61.4913 14.4695 62.0839 15.3193 62.9663 15.3193C63.8486 15.3193 64.4413 14.4106 64.4413 13.2799C64.4413 12.1276 63.8606 11.2658 62.9782 11.2658ZM75.1505 10.4627L73.3846 16.1235H72.234L71.5025 13.6652C71.3206 13.0639 71.1692 12.4538 71.0488 11.8371H71.0248C70.9326 12.4541 70.7578 13.0723 70.5723 13.6652L69.7941 16.1235H68.6316L66.9698 10.4627H68.2592L68.8985 13.1539C69.0494 13.7949 69.1763 14.3998 69.2817 14.9712H69.3056C69.3978 14.4947 69.5486 13.8993 69.7701 13.1659L70.5723 10.464H71.5947L72.3621 13.1083C72.5477 13.7493 72.6985 14.3782 72.8159 14.9724H72.8494C72.9308 14.3902 73.0589 13.7721 73.2325 13.1083L73.9185 10.464L75.1505 10.4627ZM81.6514 16.1235H80.3967V12.873C80.3967 11.8719 80.0136 11.3702 79.2582 11.3702C78.5147 11.3702 78.0035 12.0112 78.0035 12.7566V16.1235H76.7488V12.0808C76.7488 11.5803 76.7368 11.0437 76.7021 10.4615H77.8059L77.8646 11.3354H77.8993C78.2369 10.7304 78.9217 10.3463 79.6892 10.3463C80.8744 10.3463 81.6526 11.255 81.6526 12.7338L81.6514 16.1235ZM85.1114 16.1235H83.8555V7.86523H85.1114V16.1235ZM89.686 16.2519C88.0375 16.2519 86.9671 15.0168 86.9671 13.3399C86.9671 11.5923 88.059 10.3463 89.7782 10.3463C91.4053 10.3463 92.4971 11.5226 92.4971 13.2475C92.4983 15.0168 91.3705 16.2519 89.686 16.2519ZM89.7327 11.2658C88.8264 11.2658 88.2458 12.1156 88.2458 13.3039C88.2458 14.4695 88.8396 15.3193 89.7196 15.3193C90.6031 15.3193 91.1945 14.4106 91.1945 13.2799C91.1957 12.1276 90.6163 11.2658 89.7327 11.2658ZM97.4441 16.1235L97.3531 15.4717H97.3196C96.9365 15.9963 96.3774 16.2519 95.6686 16.2519C94.6569 16.2519 93.9386 15.5413 93.9386 14.5859C93.9386 13.1887 95.1466 12.4661 97.2382 12.4661V12.3617C97.2382 11.6163 96.8443 11.243 96.0661 11.243C95.5094 11.243 95.0209 11.3834 94.5911 11.6631L94.3361 10.8361C94.8581 10.5096 95.5094 10.3463 96.2744 10.3463C97.7494 10.3463 98.4941 11.1265 98.4941 12.6882V14.7731C98.4941 15.3445 98.5192 15.7874 98.5755 16.1247L97.4441 16.1235ZM97.2717 13.3039C95.8781 13.3039 95.1789 13.6424 95.1789 14.4454C95.1789 15.0396 95.5393 15.3301 96.0397 15.3301C96.6779 15.3301 97.2717 14.8416 97.2717 14.1778V13.3039ZM104.587 16.1235L104.528 15.2149H104.493C104.133 15.9014 103.527 16.2519 102.681 16.2519C101.32 16.2519 100.311 15.0516 100.311 13.3627C100.311 11.5923 101.357 10.3451 102.784 10.3451C103.539 10.3451 104.074 10.6008 104.376 11.1145H104.401V7.86523H105.657V14.5979C105.657 15.1452 105.67 15.6578 105.704 16.1235H104.587ZM104.401 12.7926C104.401 12.0004 103.878 11.3246 103.079 11.3246C102.149 11.3246 101.581 12.1516 101.581 13.3159C101.581 14.4574 102.171 15.2389 103.054 15.2389C103.843 15.2389 104.401 14.5511 104.401 13.7361V12.7926ZM113.62 16.2519C111.971 16.2519 110.902 15.0168 110.902 13.3399C110.902 11.5923 111.994 10.3463 113.713 10.3463C115.34 10.3463 116.432 11.5226 116.432 13.2475C116.433 15.0168 115.307 16.2519 113.62 16.2519ZM113.667 11.2658C112.761 11.2658 112.181 12.1156 112.181 13.3039C112.181 14.4695 112.773 15.3193 113.655 15.3193C114.538 15.3193 115.13 14.4106 115.13 13.2799C115.132 12.1276 114.551 11.2658 113.667 11.2658ZM123.18 16.1235H121.924V12.873C121.924 11.8719 121.541 11.3702 120.785 11.3702C120.042 11.3702 119.532 12.0112 119.532 12.7566V16.1235H118.276V12.0808C118.276 11.5803 118.264 11.0437 118.229 10.4615H119.333L119.392 11.3354H119.426C119.763 10.7304 120.449 10.3451 121.215 10.3451C122.4 10.3451 123.18 11.2538 123.18 12.7326V16.1235ZM131.621 11.4062H130.241V14.155C130.241 14.8548 130.483 15.2041 130.971 15.2041C131.193 15.2041 131.378 15.18 131.528 15.1452L131.563 16.1007C131.32 16.1943 130.994 16.2411 130.589 16.2411C129.6 16.2411 129.009 15.6938 129.009 14.2606V11.4062H128.185V10.4627H129.009V9.42566L130.241 9.05236V10.4615H131.621V11.4062ZM138.264 16.1235H137.01V12.897C137.01 11.8839 136.628 11.3714 135.872 11.3714C135.221 11.3714 134.616 11.8143 134.616 12.711V16.1235H133.362V7.86523H134.616V11.2658H134.641C135.036 10.6488 135.608 10.3451 136.338 10.3451C137.533 10.3451 138.264 11.2766 138.264 12.7566V16.1235ZM145.069 13.5956H141.303C141.327 14.6675 142.035 15.2725 143.082 15.2725C143.639 15.2725 144.152 15.1788 144.604 15.0048L144.799 15.8786C144.265 16.1115 143.637 16.2279 142.905 16.2279C141.139 16.2279 140.094 15.1092 140.094 13.3748C140.094 11.6391 141.165 10.3343 142.764 10.3343C144.207 10.3343 145.112 11.4062 145.112 13.0255C145.12 13.2165 145.105 13.4079 145.069 13.5956ZM143.918 12.699C143.918 11.8251 143.479 11.2082 142.677 11.2082C141.956 11.2082 141.386 11.8371 141.305 12.699H143.918Z"
    fill="white"
  ></path>
  <defs>
    <linearGradient
      id="paint0_linear_17937_48563"
      x1="118.475"
      y1="48.1274"
      x2="118.475"
      y2="-124.984"
      gradientUnits="userSpaceOnUse"
    >
      <stop stop-color="#1A1A1A" stop-opacity="0.1"></stop>
      <stop offset="0.123" stop-color="#212121" stop-opacity="0.151"></stop>
      <stop offset="0.308" stop-color="#353535" stop-opacity="0.227"></stop>
      <stop offset="0.532" stop-color="#575757" stop-opacity="0.318"></stop>
      <stop offset="0.783" stop-color="#858585" stop-opacity="0.421"></stop>
      <stop offset="1" stop-color="#B3B3B3" stop-opacity="0.51"></stop>
    </linearGradient>
  </defs>
</svg>
