<svg
  xmlns="http://www.w3.org/2000/svg"
  width="20"
  height="20"
  viewBox="0 0 20 20"
  fill="none"
>
  <path
    fill="currentColor"
    d="M3.33301 10C4.25348 10 5 10.7465 5 11.667V15.833C5 16.7535 4.25348 17.5 3.33301 17.5C2.41268 17.4998 1.66699 16.7534 1.66699 15.833V11.667C1.66699 10.7466 2.41268 10.0002 3.33301 10ZM10 2.5C10.9205 2.5 11.667 3.24652 11.667 4.16699V15.833C11.667 16.7535 10.9205 17.5 10 17.5C9.07953 17.5 8.33301 16.7535 8.33301 15.833V4.16699C8.33301 3.24652 9.07953 2.5 10 2.5ZM16.667 6.66699C17.5872 6.66717 18.3328 7.41279 18.333 8.33301V15.833C18.333 16.7534 17.5873 17.4998 16.667 17.5C15.7465 17.5 15 16.7535 15 15.833V8.33301C15.0002 7.41268 15.7466 6.66699 16.667 6.66699Z"
  ></path>
</svg>
