<svg
  xmlns="http://www.w3.org/2000/svg"
  width="20"
  height="20"
  viewBox="0 0 20 20"
  fill="none"
>
  <path
    fill="currentColor"
    fill-rule="evenodd"
    clip-rule="evenodd"
    d="M11.9501 6.35132C11.5353 6.12957 11.087 5.98093 10.625 5.91032V1.68994C11.7786 1.77671 12.904 2.10296 13.9283 2.65046C15.1369 3.29648 16.1675 4.23059 16.9289 5.37006C17.6903 6.50952 18.1589 7.81917 18.2932 9.183C18.2995 9.24691 18.305 9.31085 18.3098 9.37481H14.0895C13.9981 8.77708 13.7767 8.20569 13.4397 7.70143C13.0618 7.13576 12.5501 6.67203 11.9501 6.35132ZM5.37021 3.0709C6.56679 2.27137 7.94691 1.79734 9.37496 1.68994V5.91032C8.77883 6.00143 8.2072 6.2222 7.70158 6.56004C7.02126 7.01462 6.49101 7.66072 6.1779 8.41666C5.86478 9.17259 5.78285 10.0044 5.94248 10.8069C6.06112 11.4033 6.30922 11.9636 6.66634 12.4496L3.68208 15.4339C2.74822 14.3481 2.10751 13.037 1.82675 11.6256C1.50521 10.0091 1.67024 8.3335 2.30097 6.81078C2.9317 5.28806 3.9998 3.98657 5.37021 3.0709ZM4.56597 16.3177C5.44307 17.0721 6.4695 17.6372 7.58094 17.9743C8.89236 18.3721 10.2816 18.4404 11.6257 18.173C12.9573 17.9081 14.2038 17.322 15.257 16.4658L11.5011 13.8548C11.2769 13.9421 11.0447 14.01 10.8071 14.0573C10.1398 14.19 9.45012 14.1561 8.79908 13.9586C8.34893 13.8221 7.92686 13.6102 7.55023 13.3335L4.56597 16.3177ZM13.822 11.583C13.9499 11.2743 14.0394 10.9526 14.0895 10.6248H18.3098C18.2438 11.5035 18.0385 12.3692 17.699 13.1888C17.3332 14.0718 16.8195 14.8824 16.1828 15.587L12.6796 13.1517C13.1791 12.727 13.5709 12.1894 13.822 11.583Z"
  ></path>
</svg>
