<svg
  xmlns="http://www.w3.org/2000/svg"
  width="100%"
  viewBox="0 0 162 48"
  fill="none"
>
  <path
    d="M155.556 48H5.98291C2.63248 48 0 45.36 0 42V6C0 2.64 2.63248 0 5.98291 0H155.556C158.906 0 161.538 2.64 161.538 6V42C161.538 45.36 158.906 48 155.556 48Z"
    fill="black"
  ></path>
  <path
    d="M56.7166 12.2393C56.7166 13.1993 56.4773 14.0393 55.879 14.6393C55.161 15.3593 54.3234 15.7193 53.2465 15.7193C52.1696 15.7193 51.332 15.3593 50.614 14.6393C49.8961 13.9193 49.5371 13.0793 49.5371 11.9993C49.5371 10.9193 49.8961 10.0793 50.614 9.3593C51.332 8.6393 52.1696 8.2793 53.2465 8.2793C53.7251 8.2793 54.2038 8.3993 54.6824 8.6393C55.161 8.8793 55.52 9.1193 55.7593 9.4793L55.161 10.0793C54.6824 9.4793 54.0841 9.2393 53.2465 9.2393C52.5286 9.2393 51.8106 9.4793 51.332 10.0793C50.7337 10.5593 50.4944 11.2793 50.4944 12.1193C50.4944 12.9593 50.7337 13.6793 51.332 14.1593C51.9303 14.6393 52.5286 14.9993 53.2465 14.9993C54.0841 14.9993 54.6824 14.7593 55.2807 14.1593C55.6397 13.7993 55.879 13.3193 55.879 12.7193H53.2465V11.7593H56.7166V12.2393ZM62.2209 9.2393H58.9901V11.5193H61.9816V12.3593H58.9901V14.6393H62.2209V15.5993H58.0328V8.3993H62.2209V9.2393ZM66.1696 15.5993H65.2123V9.2393H63.1781V8.3993H68.2038V9.2393H66.1696V15.5993ZM71.6739 15.5993V8.3993H72.6311V15.5993H71.6739ZM76.6995 15.5993H75.7422V9.2393H73.708V8.3993H78.614V9.2393H76.5798V15.5993H76.6995ZM88.067 14.6393C87.3491 15.3593 86.5115 15.7193 85.4345 15.7193C84.3576 15.7193 83.52 15.3593 82.8021 14.6393C82.0841 13.9193 81.7251 13.0793 81.7251 11.9993C81.7251 10.9193 82.0841 10.0793 82.8021 9.3593C83.52 8.6393 84.3576 8.2793 85.4345 8.2793C86.5115 8.2793 87.3491 8.6393 88.067 9.3593C88.785 10.0793 89.1439 10.9193 89.1439 11.9993C89.1439 13.0793 88.785 13.9193 88.067 14.6393ZM83.52 14.0393C83.9986 14.5193 84.7166 14.8793 85.4345 14.8793C86.1525 14.8793 86.8704 14.6393 87.3491 14.0393C87.8277 13.5593 88.1867 12.8393 88.1867 11.9993C88.1867 11.1593 87.9474 10.4393 87.3491 9.9593C86.8704 9.4793 86.1525 9.1193 85.4345 9.1193C84.7166 9.1193 83.9986 9.3593 83.52 9.9593C83.0414 10.4393 82.6824 11.1593 82.6824 11.9993C82.6824 12.8393 82.9217 13.5593 83.52 14.0393ZM90.4602 15.5993V8.3993H91.5371L95.0072 14.0393V8.3993H95.9645V15.5993H95.0072L91.2978 9.7193V15.5993H90.4602Z"
    fill="white"
  ></path>
  <path
    d="M81.4874 26.1595C78.6156 26.1595 76.3421 28.3195 76.3421 31.3195C76.3421 34.1995 78.6156 36.4795 81.4874 36.4795C84.3592 36.4795 86.6327 34.3195 86.6327 31.3195C86.6327 28.1995 84.3592 26.1595 81.4874 26.1595ZM81.4874 34.3195C79.9318 34.3195 78.6156 32.9995 78.6156 31.1995C78.6156 29.3995 79.9318 28.0795 81.4874 28.0795C83.0429 28.0795 84.3592 29.2795 84.3592 31.1995C84.3592 32.9995 83.0429 34.3195 81.4874 34.3195ZM70.3592 26.1595C67.4874 26.1595 65.2139 28.3195 65.2139 31.3195C65.2139 34.1995 67.4874 36.4795 70.3592 36.4795C73.231 36.4795 75.5045 34.3195 75.5045 31.3195C75.5045 28.1995 73.231 26.1595 70.3592 26.1595ZM70.3592 34.3195C68.8036 34.3195 67.4874 32.9995 67.4874 31.1995C67.4874 29.3995 68.8036 28.0795 70.3592 28.0795C71.9147 28.0795 73.231 29.2795 73.231 31.1995C73.231 32.9995 71.9147 34.3195 70.3592 34.3195ZM57.0771 27.7195V29.8795H62.2224C62.1028 31.0795 61.6241 32.0395 61.0258 32.6395C60.3079 33.3595 59.1113 34.1995 57.0771 34.1995C53.8464 34.1995 51.4532 31.6795 51.4532 28.4395C51.4532 25.1995 53.966 22.6795 57.0771 22.6795C58.7523 22.6795 60.0686 23.3995 61.0258 24.2395L62.5814 22.6795C61.2652 21.4795 59.5899 20.5195 57.1968 20.5195C52.8891 20.5195 49.1797 24.1195 49.1797 28.4395C49.1797 32.7595 52.8891 36.3595 57.1968 36.3595C59.5899 36.3595 61.2652 35.6395 62.7011 34.0795C64.137 32.6395 64.6156 30.5995 64.6156 29.0395C64.6156 28.5595 64.6156 28.0795 64.4959 27.7195H57.0771ZM111.402 29.3995C110.923 28.1995 109.727 26.1595 107.094 26.1595C104.462 26.1595 102.308 28.1995 102.308 31.3195C102.308 34.1995 104.462 36.4795 107.334 36.4795C109.607 36.4795 111.043 35.0395 111.522 34.1995L109.846 32.9995C109.248 33.8395 108.53 34.4395 107.334 34.4395C106.137 34.4395 105.419 33.9595 104.821 32.8795L111.641 29.9995L111.402 29.3995ZM104.462 31.0795C104.462 29.1595 106.017 28.0795 107.094 28.0795C107.932 28.0795 108.769 28.5595 109.009 29.1595L104.462 31.0795ZM98.8378 35.9995H101.111V20.9995H98.8378V35.9995ZM95.2481 27.2395C94.6498 26.6395 93.6925 26.0395 92.4959 26.0395C89.9831 26.0395 87.5899 28.3195 87.5899 31.1995C87.5899 34.0795 89.8635 36.2395 92.4959 36.2395C93.6925 36.2395 94.6498 35.6395 95.1284 35.0395H95.2481V35.7595C95.2481 37.6795 94.1711 38.7595 92.4959 38.7595C91.1797 38.7595 90.2224 37.7995 89.9831 36.9595L88.0686 37.7995C88.6669 39.1195 90.1028 40.7995 92.6156 40.7995C95.2481 40.7995 97.4019 39.2395 97.4019 35.5195V26.3995H95.2481V27.2395ZM92.6156 34.3195C91.06 34.3195 89.7438 32.9995 89.7438 31.1995C89.7438 29.3995 91.06 28.0795 92.6156 28.0795C94.1711 28.0795 95.3677 29.3995 95.3677 31.1995C95.3677 32.9995 94.1711 34.3195 92.6156 34.3195ZM121.812 20.9995H116.428V35.9995H118.701V30.3595H121.812C124.325 30.3595 126.718 28.5595 126.718 25.6795C126.718 22.7995 124.325 20.9995 121.812 20.9995ZM121.932 28.1995H118.701V23.0395H121.932C123.607 23.0395 124.564 24.4795 124.564 25.5595C124.445 26.8795 123.487 28.1995 121.932 28.1995ZM135.693 26.0395C134.017 26.0395 132.342 26.7595 131.744 28.3195L133.778 29.1595C134.257 28.3195 134.975 28.0795 135.812 28.0795C137.009 28.0795 138.086 28.7995 138.205 29.9995V30.1195C137.846 29.8795 136.889 29.5195 135.932 29.5195C133.778 29.5195 131.624 30.7195 131.624 32.8795C131.624 34.9195 133.419 36.2395 135.334 36.2395C136.889 36.2395 137.607 35.5195 138.205 34.7995H138.325V35.9995H140.479V30.2395C140.24 27.5995 138.205 26.0395 135.693 26.0395ZM135.453 34.3195C134.735 34.3195 133.658 33.9595 133.658 32.9995C133.658 31.7995 134.975 31.4395 136.051 31.4395C137.009 31.4395 137.487 31.6795 138.086 31.9195C137.846 33.3595 136.65 34.3195 135.453 34.3195ZM148.017 26.3995L145.504 32.8795H145.385L142.752 26.3995H140.359L144.308 35.5195L142.034 40.5595H144.308L150.41 26.3995H148.017ZM127.915 35.9995H130.188V20.9995H127.915V35.9995Z"
    fill="white"
  ></path>
  <path
    d="M12.4454 9C12.0865 9.36 11.9668 9.96 11.9668 10.68V37.2C11.9668 37.92 12.2061 38.52 12.5651 38.88L12.6847 39L27.5224 24.12V23.88L12.4454 9Z"
    fill="url(#paint0_linear_17937_48573)"
  ></path>
  <path
    d="M32.3103 29.159L27.4043 24.239V23.879L32.3103 18.959L32.4299 19.079L38.2932 22.439C39.9684 23.399 39.9684 24.959 38.2932 25.919L32.3103 29.159Z"
    fill="url(#paint1_linear_17937_48573)"
  ></path>
  <path
    d="M32.4282 29.04L27.4026 24L12.4453 39C13.0436 39.6 13.8812 39.6 14.9581 39.12L32.4282 29.04Z"
    fill="url(#paint2_linear_17937_48573)"
  ></path>
  <path
    d="M32.4282 18.9599L14.9581 8.99994C13.8812 8.39994 13.0436 8.51994 12.4453 9.11994L27.4026 23.9999L32.4282 18.9599Z"
    fill="url(#paint3_linear_17937_48573)"
  ></path>
  <path
    opacity="0.2"
    d="M32.3086 28.9199L14.9581 38.7599C14.0009 39.3599 13.1633 39.2399 12.565 38.7599L12.4453 38.8799L12.565 38.9999C13.1633 39.4799 14.0009 39.5999 14.9581 38.9999L32.3086 28.9199Z"
    fill="black"
  ></path>
  <path
    opacity="0.12"
    d="M12.4454 38.76C12.0865 38.4 11.9668 37.8 11.9668 37.08V37.2C11.9668 37.92 12.2061 38.52 12.5651 38.88V38.76H12.4454ZM38.2916 25.56L32.3087 28.92L32.4283 29.04L38.2916 25.68C39.1292 25.2 39.4882 24.6 39.4882 24C39.4882 24.6 39.0095 25.08 38.2916 25.56Z"
    fill="black"
  ></path>
  <path
    opacity="0.25"
    d="M14.9583 9.11954L38.2916 22.4395C39.0095 22.9195 39.4882 23.3995 39.4882 23.9995C39.4882 23.3995 39.1292 22.7995 38.2916 22.3195L14.9583 8.99954C13.283 8.03954 11.9668 8.75954 11.9668 10.6795V10.7995C11.9668 8.99954 13.283 8.15954 14.9583 9.11954Z"
    fill="white"
  ></path>
  <defs>
    <linearGradient
      id="paint0_linear_17937_48573"
      x1="26.0865"
      y1="10.452"
      x2="5.94694"
      y2="30.5329"
      gradientUnits="userSpaceOnUse"
    >
      <stop stop-color="#00A0FF"></stop>
      <stop offset="0.007" stop-color="#00A1FF"></stop>
      <stop offset="0.26" stop-color="#00BEFF"></stop>
      <stop offset="0.512" stop-color="#00D2FF"></stop>
      <stop offset="0.76" stop-color="#00DFFF"></stop>
      <stop offset="1" stop-color="#00E3FF"></stop>
    </linearGradient>
    <linearGradient
      id="paint1_linear_17937_48573"
      x1="40.4877"
      y1="24.0002"
      x2="11.534"
      y2="24.0002"
      gradientUnits="userSpaceOnUse"
    >
      <stop stop-color="#FFE000"></stop>
      <stop offset="0.409" stop-color="#FFBD00"></stop>
      <stop offset="0.775" stop-color="#FFA500"></stop>
      <stop offset="1" stop-color="#FF9C00"></stop>
    </linearGradient>
    <linearGradient
      id="paint2_linear_17937_48573"
      x1="29.7084"
      y1="26.7552"
      x2="2.3989"
      y2="53.9869"
      gradientUnits="userSpaceOnUse"
    >
      <stop stop-color="#FF3A44"></stop>
      <stop offset="1" stop-color="#C31162"></stop>
    </linearGradient>
    <linearGradient
      id="paint3_linear_17937_48573"
      x1="8.73232"
      y1="0.21114"
      x2="20.9279"
      y2="12.3719"
      gradientUnits="userSpaceOnUse"
    >
      <stop stop-color="#32A071"></stop>
      <stop offset="0.069" stop-color="#2DA771"></stop>
      <stop offset="0.476" stop-color="#15CF74"></stop>
      <stop offset="0.801" stop-color="#06E775"></stop>
      <stop offset="1" stop-color="#00F076"></stop>
    </linearGradient>
  </defs>
</svg>
