<svg
  width="24"
  height="24"
  viewBox="0 0 24 24"
  xmlns="http://www.w3.org/2000/svg"
>
  <path
    fill="currentColor"
    fill-rule="evenodd"
    clip-rule="evenodd"
    d="M12 10.25C12.4142 10.25 12.75 10.5858 12.75 11V15.66C12.75 16.0742 12.4142 16.41 12 16.41C11.5858 16.41 11.25 16.0742 11.25 15.66V11C11.25 10.5858 11.5858 10.25 12 10.25Z"
  ></path>
  <path
    fill="currentColor"
    d="M12 9.08C12.4142 9.08 12.75 8.74422 12.75 8.33C12.75 7.91579 12.4142 7.58 12 7.58C11.5858 7.58 11.25 7.91579 11.25 8.33C11.25 8.74422 11.5858 9.08 12 9.08Z"
  ></path>
  <path
    fill="currentColor"
    fill-rule="evenodd"
    clip-rule="evenodd"
    d="M12 3.5C7.30558 3.5 3.5 7.30558 3.5 12C3.5 16.6944 7.30558 20.5 12 20.5C16.6944 20.5 20.5 16.6944 20.5 12C20.5 7.30558 16.6944 3.5 12 3.5ZM2 12C2 6.47715 6.47715 2 12 2C17.5228 2 22 6.47715 22 12C22 17.5228 17.5228 22 12 22C6.47715 22 2 17.5228 2 12Z"
  ></path>
</svg>
