<svg
  xmlns="http://www.w3.org/2000/svg"
  width="40"
  height="35"
  viewBox="0 0 40 35"
  fill="none"
>
  <path
    d="M17.1045 4.4937C12.5313 -5.23698 -0.420256 2.51014 6.10006 11.8751L17.1045 4.4937Z"
    fill="#262626"
  ></path>
  <g opacity="0.11">
    <path
      d="M17.1261 4.4992L16.5322 4.89704C13.2776 -1.1555 6.53057 0.430209 4.55139 4.95286C5.99092 -0.394756 13.7895 -2.60304 17.1261 4.4992Z"
      fill="white"
    ></path>
  </g>
  <path
    d="M29.3425 8.08141C38.4151 2.34992 45.1802 15.8774 34.6598 20.2451L29.3425 8.08141Z"
    fill="#262626"
  ></path>
  <g opacity="0.11">
    <path
      d="M29.3214 8.07282L29.6079 8.73027C35.5969 5.38016 40.4329 10.3676 39.6763 15.2476C41.3314 9.96003 35.9405 3.89216 29.3214 8.07282Z"
      fill="white"
    ></path>
  </g>
  <path
    d="M31.2853 31.9667C26.0001 36.4335 19.0055 34.8506 15.8246 34.1317C9.00946 32.5963 -0.104794 27.4036 0.000911092 20.8444C0.0342915 18.7352 1.01485 16.9359 2.09972 15.5498C2.7462 12.7728 4.09186 10.2086 6.00799 8.10276C10.7647 2.938 17.2614 2.78027 18.9652 2.79842C20.5591 2.81935 26.8791 3.11806 31.4829 8.09298C34.2594 11.1115 35.9185 14.9957 36.1825 19.0953C36.2423 20.2302 36.5928 27.4832 31.2853 31.9667Z"
    fill="white"
  ></path>
  <path
    d="M14.7246 18.208C16.9264 15.8616 17.078 11.5329 15.1419 9.82018C14.7735 9.50894 14.3449 9.27749 13.8832 9.14037C11.0361 8.14929 8.13198 10.1538 7.50332 10.6158C5.49354 12.0927 3.02617 15.2753 3.965 17.5408C4.93859 19.8984 8.74534 20.0883 9.23631 20.1148C9.87889 20.1497 12.758 20.3046 14.7246 18.208Z"
    fill="#262626"
  ></path>
  <path
    d="M19.2575 19.956C19.0642 16.6059 21.8334 13.038 24.5247 12.9766C25.0271 12.9746 25.5245 13.0778 25.9851 13.2795C28.9225 14.3962 29.9072 17.9557 30.1006 18.7499C30.7209 21.2821 30.5679 25.485 28.305 26.6646C25.9503 27.8915 22.7833 25.4865 22.3716 25.178C21.8348 24.7676 19.43 22.9557 19.2575 19.956Z"
    fill="#262626"
  ></path>
  <path
    d="M17.6343 20.7942C17.4535 21.4363 16.5717 22.1286 15.7873 21.9109C15.0028 21.6931 14.6106 20.6364 14.7915 19.9929C14.9723 19.3494 15.6565 19.3578 16.4424 19.5742C17.2282 19.7905 17.8152 20.1507 17.6343 20.7942Z"
    fill="#262626"
  ></path>
  <path
    d="M17.9153 24.3229C16.3951 24.1833 14.6774 23.625 12.676 22.2961C11.5313 21.5339 10.541 22.0979 10.3602 23.2732C10.2042 24.2447 10.4361 25.2387 11.0056 26.0398C12.8262 28.6738 15.9306 28.6389 17.2477 27.9549C17.9172 27.6185 18.4863 27.1105 18.8973 26.4823C19.5677 25.4061 18.9751 24.4234 17.9153 24.3229Z"
    fill="#BA4251"
  ></path>
  <path
    d="M11.5936 26.0751C12.084 26.6998 12.723 27.1909 13.4518 27.5031C14.3632 27.8892 15.3691 27.9918 16.3392 27.7976C17.0165 27.6497 17.0346 27.2393 16.5172 26.7702C15.3109 25.7002 13.7486 25.1229 12.1388 25.1524C11.0999 25.1832 11.15 25.5181 11.5936 26.0751Z"
    fill="#EA696E"
  ></path>
  <path
    d="M14.0222 17.2613C14.8386 15.6785 14.3956 13.8213 13.0327 13.1132C11.6697 12.405 9.90298 13.1141 9.08651 14.697C8.27004 16.2798 8.71304 18.137 10.076 18.8452C11.4389 19.5533 13.2057 18.8442 14.0222 17.2613Z"
    fill="white"
  ></path>
  <path
    d="M11.3765 18.7799C12.594 18.7799 13.581 17.7893 13.581 16.5674C13.581 15.3455 12.594 14.355 11.3765 14.355C10.159 14.355 9.172 15.3455 9.172 16.5674C9.172 17.7893 10.159 18.7799 11.3765 18.7799Z"
    fill="#262626"
  ></path>
  <path
    d="M9.61272 17.6661C9.94687 17.6661 10.2178 17.3942 10.2178 17.0588C10.2178 16.7235 9.94687 16.4517 9.61272 16.4517C9.27858 16.4517 9.00769 16.7235 9.00769 17.0588C9.00769 17.3942 9.27858 17.6661 9.61272 17.6661Z"
    fill="white"
  ></path>
  <path
    d="M11.0316 16.6265C11.6515 16.6265 12.154 16.1222 12.154 15.5C12.154 14.8779 11.6515 14.3735 11.0316 14.3735C10.4117 14.3735 9.90918 14.8779 9.90918 15.5C9.90918 16.1222 10.4117 16.6265 11.0316 16.6265Z"
    fill="white"
  ></path>
  <path
    d="M12.7844 16.8011C12.9703 16.8011 13.121 16.6498 13.121 16.4633C13.121 16.2767 12.9703 16.1255 12.7844 16.1255C12.5985 16.1255 12.4478 16.2767 12.4478 16.4633C12.4478 16.6498 12.5985 16.8011 12.7844 16.8011Z"
    fill="white"
  ></path>
  <path
    d="M25.2618 21.5114C26.0783 19.9285 25.6353 18.0713 24.2723 17.3632C22.9094 16.655 21.1426 17.3642 20.3261 18.947C19.5096 20.5299 19.9527 22.387 21.3156 23.0952C22.6786 23.8033 24.4453 23.0942 25.2618 21.5114Z"
    fill="white"
  ></path>
  <path
    d="M22.5936 23.13C23.8519 23.13 24.8718 22.1064 24.8718 20.8436C24.8718 19.5808 23.8519 18.5571 22.5936 18.5571C21.3354 18.5571 20.3154 19.5808 20.3154 20.8436C20.3154 22.1064 21.3354 23.13 22.5936 23.13Z"
    fill="#262626"
  ></path>
  <path
    d="M20.7703 21.9833C21.116 21.9833 21.3962 21.7021 21.3962 21.3552C21.3962 21.0083 21.116 20.7271 20.7703 20.7271C20.4246 20.7271 20.1444 21.0083 20.1444 21.3552C20.1444 21.7021 20.4246 21.9833 20.7703 21.9833Z"
    fill="white"
  ></path>
  <path
    d="M22.2948 20.8492C22.9255 20.8492 23.4367 20.3361 23.4367 19.7032C23.4367 19.0702 22.9255 18.5571 22.2948 18.5571C21.6642 18.5571 21.153 19.0702 21.153 19.7032C21.153 20.3361 21.6642 20.8492 22.2948 20.8492Z"
    fill="white"
  ></path>
  <path
    d="M24.0485 21.0886C24.2406 21.0886 24.3962 20.9323 24.3962 20.7396C24.3962 20.5469 24.2406 20.3906 24.0485 20.3906C23.8565 20.3906 23.7008 20.5469 23.7008 20.7396C23.7008 20.9323 23.8565 21.0886 24.0485 21.0886Z"
    fill="white"
  ></path>
</svg>
