<svg
  width="20"
  height="20"
  viewBox="0 0 20 20"
  fill="none"
  xmlns="http://www.w3.org/2000/svg"
>
  <path
    d="M0 10C0 4.47715 4.47715 0 10 0C15.5228 0 20 4.47715 20 10C20 15.5228 15.5228 20 10 20C4.47715 20 0 15.5228 0 10Z"
    fill="#13C05D"
  />
  <path
    fill-rule="evenodd"
    clip-rule="evenodd"
    d="M13.769 7.19979C13.952 7.38285 13.952 7.67965 13.769 7.86271L9.08146 12.5502C8.8984 12.7333 8.6016 12.7333 8.41854 12.5502L6.23104 10.3627C6.04799 10.1796 6.04799 9.88285 6.23104 9.69979C6.4141 9.51674 6.7109 9.51674 6.89396 9.69979L8.75 11.5558L13.106 7.19979C13.2891 7.01674 13.5859 7.01674 13.769 7.19979Z"
    fill="white"
  />
</svg>
